# xmcd
#
# Track frame offsets: 
#        150
#        9300
#        21825
#        32887
#        45675
#        57037
#        66300
#        77362
#        85912
#        97312
#        111262
#        119550
#
# Disc length: 1725 seconds
#
# Revision: 0
# Processed by: cddbd v1.5.2PL0 Copyright (c) Steve Scherf et al.
# Submitted via: ExactAudioCopy v0.99pb5
#
DISCID=9a06bb0c
DTITLE=Ralph Stanley and the Clinch Mountain Boys - Can't You Hear the
DTITLE=Mountains Calling
DYEAR=2009
DGENRE=Bluegrass
TTITLE0=Don't Wake Me Up
TTITLE1=Can't You Hear the Mountains Calling
TTITLE2=Won't You Be Mine
TTITLE3=That Happy Night
TTITLE4=Little Willie
TTITLE5=When You Go Walking after Midnight
TTITLE6=This Weary Heart You Stole Away
TTITLE7=Cotton-Eyed Joe
TTITLE8=Sixteen Years
TTITLE9=With Whiskey and Wine
TTITLE10=Dickenson County Breakdown
TTITLE11=In Despair
EXTD=
EXTT0=
EXTT1=
EXTT2=
EXTT3=
EXTT4=
EXTT5=
EXTT6=
EXTT7=
EXTT8=
EXTT9=
EXTT10=
EXTT11=
PLAYORDER=
